STARTFONT 2.1
COMMENT
COMMENT Converted from OpenType font "regular.ttf" by "otf2bdf 3.0".
COMMENT
FONT -FreeType-Roboto-Medium-R-Normal--28-200-100-100-P-116-ISO10646-1
SIZE 20 100 100
FONTBOUNDINGBOX 25 29 -1 -6
STARTPROPERTIES 19
FOUNDRY "FreeType"
FAMILY_NAME "Roboto"
WEIGHT_NAME "Medium"
SLANT "R"
SETWIDTH_NAME "Normal"
ADD_STYLE_NAME ""
PIXEL_SIZE 28
POINT_SIZE 200
RESOLUTION_X 100
RESOLUTION_Y 100
SPACING "P"
AVERAGE_WIDTH 116
CHARSET_REGISTRY "ISO10646"
CHARSET_ENCODING "1"
FONT_ASCENT 25
FONT_DESCENT 6
COPYRIGHT "Copyright 2011 Google Inc. All Rights Reserved."
_OTF_FONTFILE "regular.ttf"
_OTF_PSNAME "Roboto-Regular"
ENDPROPERTIES
CHARS 98
STARTCHAR 0000
ENCODING 0
SWIDTH 0 0
DWIDTH 0 0
BBX 0 0 0 0
BITMAP
ENDCHAR
STARTCHAR 0002
ENCODING 2
SWIDTH 0 0
DWIDTH 0 0
BBX 0 0 0 0
BITMAP
ENDCHAR
STARTCHAR 000D
ENCODING 13
SWIDTH 216 0
DWIDTH 6 0
BBX 0 0 0 0
BITMAP
ENDCHAR
STARTCHAR 0020
ENCODING 32
SWIDTH 216 0
DWIDTH 6 0
BBX 0 0 0 0
BITMAP
ENDCHAR
STARTCHAR 0021
ENCODING 33
SWIDTH 252 0
DWIDTH 7 0
BBX 3 20 2 0
BITMAP
E0
E0
E0
E0
E0
E0
E0
E0
E0
E0
E0
E0
E0
E0
00
00
00
40
E0
E0
ENDCHAR
STARTCHAR 0022
ENCODING 34
SWIDTH 288 0
DWIDTH 8 0
BBX 5 7 2 14
BITMAP
D8
D8
D8
D8
D8
98
98
ENDCHAR
STARTCHAR 0023
ENCODING 35
SWIDTH 612 0
DWIDTH 17 0
BBX 15 20 2 0
BITMAP
0318
0618
0618
0630
0630
0630
7FFE
7FFE
0C20
0C60
0C60
1860
1860
FFFC
18C0
18C0
30C0
30C0
30C0
3180
ENDCHAR
STARTCHAR 0024
ENCODING 36
SWIDTH 540 0
DWIDTH 15 0
BBX 13 26 1 -3
BITMAP
0300
0300
0300
0FC0
1FE0
3870
3030
7038
7038
7000
3800
3C00
1F80
07E0
01F0
0078
0038
E018
6018
7038
7878
3FF0
1FE0
0300
0300
0300
ENDCHAR
STARTCHAR 0025
ENCODING 37
SWIDTH 720 0
DWIDTH 20 0
BBX 18 20 1 0
BITMAP
3E0000
7F0000
630400
C10C00
C18C00
C19800
631800
773000
3E6000
006000
00C000
018F00
019F80
0330C0
0330C0
0630C0
0C30C0
0C30C0
0019C0
000F80
ENDCHAR
STARTCHAR 0026
ENCODING 38
SWIDTH 612 0
DWIDTH 17 0
BBX 16 20 1 0
BITMAP
0F80
1FE0
38E0
3870
3870
3860
38E0
1DC0
0F80
0F00
1F00
3B86
71C6
60EE
E07C
E07C
6038
707C
3FFE
1FC7
ENDCHAR
STARTCHAR 0027
ENCODING 39
SWIDTH 144 0
DWIDTH 4 0
BBX 2 7 1 14
BITMAP
C0
C0
C0
C0
C0
C0
C0
ENDCHAR
STARTCHAR 0028
ENCODING 40
SWIDTH 324 0
DWIDTH 9 0
BBX 7 28 2 -6
BITMAP
06
0E
1C
18
30
30
70
60
E0
E0
E0
E0
C0
C0
C0
C0
C0
E0
E0
E0
60
60
30
30
18
1C
0E
06
ENDCHAR
STARTCHAR 0029
ENCODING 41
SWIDTH 324 0
DWIDTH 9 0
BBX 7 28 1 -6
BITMAP
80
C0
60
70
30
38
18
1C
0C
0C
0C
0E
0E
0E
0E
0E
0E
0C
0C
0C
1C
18
18
30
30
60
C0
80
ENDCHAR
STARTCHAR 002A
ENCODING 42
SWIDTH 396 0
DWIDTH 11 0
BBX 11 12 1 8
BITMAP
0C00
0C00
0C00
0C00
EDC0
FFE0
1E00
1E00
3700
7300
6180
2100
ENDCHAR
STARTCHAR 002B
ENCODING 43
SWIDTH 540 0
DWIDTH 15 0
BBX 14 14 1 2
BITMAP
0300
0300
0300
0300
0300
FFFC
FFFC
FFFC
0300
0300
0300
0300
0300
0300
ENDCHAR
STARTCHAR 002C
ENCODING 44
SWIDTH 180 0
DWIDTH 5 0
BBX 3 7 1 -4
BITMAP
60
60
60
60
E0
C0
80
ENDCHAR
STARTCHAR 002D
ENCODING 45
SWIDTH 252 0
DWIDTH 7 0
BBX 7 2 0 7
BITMAP
FE
FE
ENDCHAR
STARTCHAR 002E
ENCODING 46
SWIDTH 252 0
DWIDTH 7 0
BBX 3 3 2 0
BITMAP
40
E0
E0
ENDCHAR
STARTCHAR 002F
ENCODING 47
SWIDTH 396 0
DWIDTH 11 0
BBX 11 22 0 -2
BITMAP
00E0
00C0
00C0
0180
0180
0380
0300
0300
0600
0600
0600
0C00
0C00
1C00
1800
1800
3000
3000
7000
6000
6000
E000
ENDCHAR
STARTCHAR 0030
ENCODING 48
SWIDTH 540 0
DWIDTH 15 0
BBX 12 20 2 0
BITMAP
1F80
3FC0
70E0
E060
E070
C070
C070
C070
C030
C030
C030
C030
C070
C070
C070
C070
E060
70E0
7FC0
1F80
ENDCHAR
STARTCHAR 0031
ENCODING 49
SWIDTH 540 0
DWIDTH 15 0
BBX 8 20 2 0
BITMAP
01
0F
7F
FF
C7
07
07
07
07
07
07
07
07
07
07
07
07
07
07
07
ENDCHAR
STARTCHAR 0032
ENCODING 50
SWIDTH 540 0
DWIDTH 15 0
BBX 14 20 1 0
BITMAP
0FC0
3FE0
7870
7030
E038
E038
0038
0030
0070
00E0
00C0
01C0
0380
0700
0E00
1C00
3800
7000
7FFC
7FFC
ENDCHAR
STARTCHAR 0033
ENCODING 51
SWIDTH 540 0
DWIDTH 15 0
BBX 13 20 1 0
BITMAP
0F80
3FE0
7870
7030
6030
0030
0030
0070
00E0
0FC0
0FE0
0070
0030
0038
0038
E038
E038
7070
3FE0
1FC0
ENDCHAR
STARTCHAR 0034
ENCODING 52
SWIDTH 540 0
DWIDTH 15 0
BBX 14 20 1 0
BITMAP
00E0
00E0
01E0
03E0
0360
0760
0660
0C60
1C60
1860
3060
7060
6060
FFFC
FFFC
0060
0060
0060
0060
0060
ENDCHAR
STARTCHAR 0035
ENCODING 53
SWIDTH 540 0
DWIDTH 15 0
BBX 12 20 2 0
BITMAP
3FF0
3FF0
3FF0
7000
7000
7000
6000
6F80
7FE0
79E0
2070
0030
0030
0030
0030
E030
E070
70F0
3FE0
1FC0
ENDCHAR
STARTCHAR 0036
ENCODING 54
SWIDTH 540 0
DWIDTH 15 0
BBX 12 20 2 0
BITMAP
0180
0F80
1F00
3800
7000
6000
E000
EF80
DFC0
F8E0
E070
C070
C030
C030
C030
E030
6070
70E0
3FE0
1F80
ENDCHAR
STARTCHAR 0037
ENCODING 55
SWIDTH 540 0
DWIDTH 15 0
BBX 13 20 1 0
BITMAP
FFF8
FFF8
0018
0038
0030
0070
0060
00E0
00C0
01C0
0180
0380
0380
0300
0700
0600
0E00
0C00
1C00
1800
ENDCHAR
STARTCHAR 0038
ENCODING 56
SWIDTH 540 0
DWIDTH 15 0
BBX 12 20 2 0
BITMAP
1F80
3FC0
71E0
E060
E070
C070
E070
E060
71C0
3F80
3FC0
70E0
E070
C070
C030
C070
C070
E0E0
7FE0
3F80
ENDCHAR
STARTCHAR 0039
ENCODING 57
SWIDTH 540 0
DWIDTH 15 0
BBX 13 20 1 0
BITMAP
0F80
3FC0
38E0
7070
6030
E038
E038
E038
6038
6038
7078
3FF8
1FB0
0030
0030
0070
00E0
03C0
1F80
1E00
ENDCHAR
STARTCHAR 003A
ENCODING 58
SWIDTH 216 0
DWIDTH 6 0
BBX 3 15 2 0
BITMAP
40
E0
E0
00
00
00
00
00
00
00
00
00
C0
E0
E0
ENDCHAR
STARTCHAR 003B
ENCODING 59
SWIDTH 180 0
DWIDTH 5 0
BBX 4 19 1 -4
BITMAP
60
F0
60
00
00
00
00
00
00
00
00
00
60
60
60
60
E0
C0
80
ENDCHAR
STARTCHAR 003C
ENCODING 60
SWIDTH 504 0
DWIDTH 14 0
BBX 11 12 1 3
BITMAP
0020
00E0
03E0
0F80
3E00
F000
E000
7C00
1F00
07E0
01E0
0060
ENDCHAR
STARTCHAR 003D
ENCODING 61
SWIDTH 540 0
DWIDTH 15 0
BBX 11 8 2 5
BITMAP
FFE0
FFE0
0000
0000
0000
FFE0
FFE0
FFE0
ENDCHAR
STARTCHAR 003E
ENCODING 62
SWIDTH 504 0
DWIDTH 14 0
BBX 11 12 2 3
BITMAP
8000
E000
F800
3F00
0FC0
01E0
00E0
07E0
1F00
FC00
F000
C000
ENDCHAR
STARTCHAR 003F
ENCODING 63
SWIDTH 468 0
DWIDTH 13 0
BBX 11 20 1 0
BITMAP
1F00
7FC0
71C0
E0E0
E0E0
00E0
00E0
00C0
01C0
0380
0700
0E00
0E00
0C00
0000
0000
0000
0400
0E00
0C00
ENDCHAR
STARTCHAR 0040
ENCODING 64
SWIDTH 864 0
DWIDTH 24 0
BBX 22 25 2 -6
BITMAP
01FF00
07C7C0
0E00E0
180060
300030
700018
607E18
60EE18
C18608
C38608
C3060C
C3060C
C3060C
C70608
C70618
C70E18
C31E10
C3F770
C1E3E0
600000
700000
380000
1C0200
0FFE00
03FC00
ENDCHAR
STARTCHAR 0041
ENCODING 65
SWIDTH 648 0
DWIDTH 18 0
BBX 17 20 1 0
BITMAP
018000
03C000
03C000
03C000
07E000
066000
067000
0E3000
0C3000
1C3800
1C1800
181C00
381C00
3FFC00
7FFE00
700E00
600600
E00700
E00300
C00380
ENDCHAR
STARTCHAR 0042
ENCODING 66
SWIDTH 612 0
DWIDTH 17 0
BBX 14 20 2 0
BITMAP
FF80
FFE0
E0F0
E038
E038
E018
E038
E038
E0F0
FFE0
FFF0
E038
E018
E01C
E01C
E01C
E038
E078
FFF0
FFC0
ENDCHAR
STARTCHAR 0043
ENCODING 67
SWIDTH 648 0
DWIDTH 18 0
BBX 15 20 2 0
BITMAP
07E0
1FF0
3C38
701C
E00C
E00E
E00E
C000
C000
C000
C000
C000
C000
C000
E00E
E00C
701C
7838
3FF8
0FE0
ENDCHAR
STARTCHAR 0044
ENCODING 68
SWIDTH 648 0
DWIDTH 18 0
BBX 15 20 2 0
BITMAP
FF00
FFE0
E1F0
E038
E018
E01C
E00C
E00C
E00E
E00E
E00E
E00E
E00C
E00C
E01C
E01C
E038
E0F0
FFE0
FF80
ENDCHAR
STARTCHAR 0045
ENCODING 69
SWIDTH 540 0
DWIDTH 15 0
BBX 13 20 2 0
BITMAP
FFF8
FFF8
E000
E000
E000
E000
E000
E000
E000
FFE0
FFE0
E000
E000
E000
E000
E000
E000
E000
FFF8
FFF8
ENDCHAR
STARTCHAR 0046
ENCODING 70
SWIDTH 540 0
DWIDTH 15 0
BBX 13 20 2 0
BITMAP
FFF8
FFF8
E000
E000
E000
E000
E000
E000
E000
FFE0
FFE0
E000
E000
E000
E000
E000
E000
E000
E000
E000
ENDCHAR
STARTCHAR 0047
ENCODING 71
SWIDTH 648 0
DWIDTH 18 0
BBX 15 20 2 0
BITMAP
07E0
1FF0
3C38
701C
E00C
E00E
E000
C000
C000
C000
C0FE
C0FE
C00E
E00E
E00E
E00E
700E
381E
1FFC
0FF0
ENDCHAR
STARTCHAR 0048
ENCODING 72
SWIDTH 684 0
DWIDTH 19 0
BBX 15 20 2 0
BITMAP
E006
E006
E006
E006
E006
E006
E006
E006
E006
FFFE
FFFE
E006
E006
E006
E006
E006
E006
E006
E006
E006
ENDCHAR
STARTCHAR 0049
ENCODING 73
SWIDTH 252 0
DWIDTH 7 0
BBX 3 20 2 0
BITMAP
E0
E0
E0
E0
E0
E0
E0
E0
E0
E0
E0
E0
E0
E0
E0
E0
E0
E0
E0
E0
ENDCHAR
STARTCHAR 004A
ENCODING 74
SWIDTH 540 0
DWIDTH 15 0
BBX 12 20 1 0
BITMAP
0030
0030
0030
0030
0030
0030
0030
0030
0030
0030
0030
0030
0030
0030
0030
C070
E070
F0E0
7FE0
3F80
ENDCHAR
STARTCHAR 004B
ENCODING 75
SWIDTH 612 0
DWIDTH 17 0
BBX 15 20 2 0
BITMAP
E01E
E01C
E038
E070
E0E0
E1C0
E380
E700
EE00
FE00
FF00
FB80
F1C0
E1E0
E0E0
E070
E038
E03C
E01C
E00E
ENDCHAR
STARTCHAR 004C
ENCODING 76
SWIDTH 504 0
DWIDTH 14 0
BBX 12 20 2 0
BITMAP
E000
E000
E000
E000
E000
E000
E000
E000
E000
E000
E000
E000
E000
E000
E000
E000
E000
E000
FFF0
FFF0
ENDCHAR
STARTCHAR 004D
ENCODING 77
SWIDTH 864 0
DWIDTH 24 0
BBX 20 20 2 0
BITMAP
F000F0
F000F0
F800F0
F801F0
F801B0
FC03B0
EC03B0
EE0370
EE0770
E60670
E70E70
E30E70
E38C70
E39C70
E19870
E1F870
E0F870
E0F070
E0F070
E06070
ENDCHAR
STARTCHAR 004E
ENCODING 78
SWIDTH 684 0
DWIDTH 19 0
BBX 15 20 2 0
BITMAP
E006
F006
F006
F806
FC06
FC06
EE06
E706
E706
E386
E1C6
E1C6
E0E6
E076
E076
E03E
E01E
E01E
E00E
E006
ENDCHAR
STARTCHAR 004F
ENCODING 79
SWIDTH 684 0
DWIDTH 19 0
BBX 15 20 2 0
BITMAP
07C0
1FF0
3C78
701C
600E
E00E
E006
C006
C006
C006
C006
C006
C006
C006
E00E
E00E
701C
383C
1FF8
0FE0
ENDCHAR
STARTCHAR 0050
ENCODING 80
SWIDTH 612 0
DWIDTH 17 0
BBX 15 20 2 0
BITMAP
FF80
FFF0
E0F8
E01C
E01C
E00C
E00E
E00C
E01C
E03C
FFF8
FFE0
E000
E000
E000
E000
E000
E000
E000
E000
ENDCHAR
STARTCHAR 0051
ENCODING 81
SWIDTH 684 0
DWIDTH 19 0
BBX 16 23 1 -3
BITMAP
03E0
0FF8
1E3C
380E
7006
7007
6007
6003
E003
E003
E003
E003
6003
6007
7007
7007
380E
3C1C
1FF8
07FC
001E
000F
0003
ENDCHAR
STARTCHAR 0052
ENCODING 82
SWIDTH 612 0
DWIDTH 17 0
BBX 14 20 2 0
BITMAP
FF80
FFF0
E0F8
E038
E01C
E01C
E01C
E01C
E038
E078
FFF0
FFC0
E0E0
E0E0
E070
E070
E038
E038
E01C
E00C
ENDCHAR
STARTCHAR 0053
ENCODING 83
SWIDTH 576 0
DWIDTH 16 0
BBX 14 20 1 0
BITMAP
0FC0
1FF0
3838
701C
600C
600C
7000
7800
3E00
1FC0
07F0
00F8
003C
001C
E00C
E00C
601C
783C
3FF8
0FE0
ENDCHAR
STARTCHAR 0054
ENCODING 84
SWIDTH 576 0
DWIDTH 16 0
BBX 15 20 1 0
BITMAP
FFFE
FFFE
0380
0380
0380
0380
0380
0380
0380
0380
0380
0380
0380
0380
0380
0380
0380
0380
0380
0380
ENDCHAR
STARTCHAR 0055
ENCODING 85
SWIDTH 648 0
DWIDTH 18 0
BBX 14 20 2 0
BITMAP
C00C
C00C
C00C
C00C
C00C
C00C
C00C
C00C
C00C
C00C
C00C
C00C
C00C
C00C
E01C
E01C
E01C
7038
3FF0
1FE0
ENDCHAR
STARTCHAR 0056
ENCODING 86
SWIDTH 612 0
DWIDTH 17 0
BBX 17 20 0 0
BITMAP
E00380
700380
700380
300700
380700
380600
180E00
1C0E00
1C0C00
0C1C00
0E1C00
061800
063800
073000
033000
037000
03E000
01E000
01E000
01C000
ENDCHAR
STARTCHAR 0057
ENCODING 87
SWIDTH 864 0
DWIDTH 24 0
BBX 23 20 1 0
BITMAP
E0380E
E0380E
E0380E
60780C
606C1C
706C1C
706C1C
30EE18
30C618
38C638
39C638
198730
198330
198370
1F83F0
0F01E0
0F01E0
0F01E0
0E01E0
0E00C0
ENDCHAR
STARTCHAR 0058
ENCODING 88
SWIDTH 612 0
DWIDTH 17 0
BBX 15 20 1 0
BITMAP
E00E
700E
701C
3838
1C38
1C70
0E70
07E0
07C0
03C0
03C0
07C0
07E0
0EF0
1C70
1C38
3838
701C
700E
E00E
ENDCHAR
STARTCHAR 0059
ENCODING 89
SWIDTH 576 0
DWIDTH 16 0
BBX 16 20 0 0
BITMAP
E007
7007
700E
380E
181C
1C1C
0C38
0E30
0670
0760
03E0
03C0
01C0
01C0
01C0
01C0
01C0
01C0
01C0
01C0
ENDCHAR
STARTCHAR 005A
ENCODING 90
SWIDTH 576 0
DWIDTH 16 0
BBX 15 20 1 0
BITMAP
FFFC
FFFC
001C
0038
0038
0070
00E0
01C0
01C0
0380
0700
0700
0E00
1C00
1C00
3800
7000
7000
FFFE
FFFE
ENDCHAR
STARTCHAR 005B
ENCODING 91
SWIDTH 252 0
DWIDTH 7 0
BBX 5 27 2 -4
BITMAP
F8
F8
E0
E0
E0
E0
E0
E0
E0
E0
E0
E0
E0
E0
E0
E0
E0
E0
E0
E0
E0
E0
E0
E0
E0
F8
F8
ENDCHAR
STARTCHAR 005C
ENCODING 92
SWIDTH 396 0
DWIDTH 11 0
BBX 10 22 1 -2
BITMAP
C000
C000
E000
6000
7000
3000
3000
3800
1800
1800
1C00
0C00
0E00
0600
0600
0700
0300
0380
0180
0180
01C0
00C0
ENDCHAR
STARTCHAR 005D
ENCODING 93
SWIDTH 252 0
DWIDTH 7 0
BBX 5 27 0 -4
BITMAP
F8
F8
18
18
18
18
18
18
18
18
18
18
18
18
18
18
18
18
18
18
18
18
18
18
18
F8
F8
ENDCHAR
STARTCHAR 005E
ENCODING 94
SWIDTH 396 0
DWIDTH 11 0
BBX 9 10 1 10
BITMAP
0C00
1C00
1E00
1E00
3600
3300
7300
6380
6180
C180
ENDCHAR
STARTCHAR 005F
ENCODING 95
SWIDTH 432 0
DWIDTH 12 0
BBX 12 2 0 -2
BITMAP
FFF0
FFF0
ENDCHAR
STARTCHAR 0060
ENCODING 96
SWIDTH 288 0
DWIDTH 8 0
BBX 5 4 1 17
BITMAP
E0
70
30
18
ENDCHAR
STARTCHAR 0061
ENCODING 97
SWIDTH 540 0
DWIDTH 15 0
BBX 12 15 1 0
BITMAP
0F80
3FE0
78F0
7070
0030
0030
0FF0
3FF0
7030
6030
E030
6070
70F0
7FF0
3F30
ENDCHAR
STARTCHAR 0062
ENCODING 98
SWIDTH 540 0
DWIDTH 15 0
BBX 12 21 2 0
BITMAP
C000
C000
C000
C000
C000
C000
CF80
DFC0
F1E0
E070
C070
C030
C030
C030
C030
C030
C070
E070
F0E0
FFE0
CF80
ENDCHAR
STARTCHAR 0063
ENCODING 99
SWIDTH 504 0
DWIDTH 14 0
BBX 13 15 1 0
BITMAP
0F80
1FE0
38F0
7030
6038
E000
E000
E000
E000
E000
6038
7030
7070
3FE0
0FC0
ENDCHAR
STARTCHAR 0064
ENCODING 100
SWIDTH 540 0
DWIDTH 15 0
BBX 13 21 1 0
BITMAP
0038
0038
0038
0038
0038
0038
0F38
3FF8
38F8
7038
6038
E038
E038
E038
E038
E038
6038
7038
7878
3FF8
1FB8
ENDCHAR
STARTCHAR 0065
ENCODING 101
SWIDTH 504 0
DWIDTH 14 0
BBX 13 15 1 0
BITMAP
0F80
1FE0
38F0
7070
6030
E038
FFF8
FFF8
E000
E000
6000
7000
7830
3FF0
0FC0
ENDCHAR
STARTCHAR 0066
ENCODING 102
SWIDTH 324 0
DWIDTH 9 0
BBX 9 21 1 0
BITMAP
0F80
1F80
1C00
3800
3800
3800
FF00
FF00
3800
3800
3800
3800
3800
3800
3800
3800
3800
3800
3800
3800
3800
ENDCHAR
STARTCHAR 0067
ENCODING 103
SWIDTH 540 0
DWIDTH 15 0
BBX 13 21 1 -6
BITMAP
0F38
3FF8
38F8
7038
6038
E038
E038
E038
E038
E038
6038
7038
7878
3FF8
1FB8
0038
0030
2070
78F0
3FE0
0F00
ENDCHAR
STARTCHAR 0068
ENCODING 104
SWIDTH 540 0
DWIDTH 15 0
BBX 11 21 2 0
BITMAP
C000
C000
C000
C000
C000
C000
CF80
DFC0
F0E0
E060
C060
C060
C060
C060
C060
C060
C060
C060
C060
C060
C060
ENDCHAR
STARTCHAR 0069
ENCODING 105
SWIDTH 216 0
DWIDTH 6 0
BBX 3 20 2 0
BITMAP
E0
E0
C0
00
00
E0
E0
E0
E0
E0
E0
E0
E0
E0
E0
E0
E0
E0
E0
E0
ENDCHAR
STARTCHAR 006A
ENCODING 106
SWIDTH 216 0
DWIDTH 6 0
BBX 6 26 -1 -6
BITMAP
18
1C
18
00
00
18
18
18
18
18
18
18
18
18
18
18
18
18
18
18
18
18
18
38
F8
F0
ENDCHAR
STARTCHAR 006B
ENCODING 107
SWIDTH 504 0
DWIDTH 14 0
BBX 12 21 2 0
BITMAP
C000
C000
C000
C000
C000
C000
C0E0
C1C0
C380
C700
CF00
DE00
DC00
FC00
FE00
E700
C380
C380
C1C0
C0E0
C070
ENDCHAR
STARTCHAR 006C
ENCODING 108
SWIDTH 216 0
DWIDTH 6 0
BBX 3 21 2 0
BITMAP
E0
E0
E0
E0
E0
E0
E0
E0
E0
E0
E0
E0
E0
E0
E0
E0
E0
E0
E0
E0
E0
ENDCHAR
STARTCHAR 006D
ENCODING 109
SWIDTH 864 0
DWIDTH 24 0
BBX 20 15 2 0
BITMAP
CF87C0
DFCFE0
F1F870
E0F030
C07030
C06030
C06030
C06030
C06030
C06030
C06030
C06030
C06030
C06030
C06030
ENDCHAR
STARTCHAR 006E
ENCODING 110
SWIDTH 540 0
DWIDTH 15 0
BBX 11 15 2 0
BITMAP
CF80
DFC0
F0E0
E060
C060
C060
C060
C060
C060
C060
C060
C060
C060
C060
C060
ENDCHAR
STARTCHAR 006F
ENCODING 111
SWIDTH 540 0
DWIDTH 15 0
BBX 14 15 1 0
BITMAP
0F80
1FE0
3870
7038
6038
E018
E01C
E01C
E01C
E018
6018
7038
3870
3FE0
0FC0
ENDCHAR
STARTCHAR 0070
ENCODING 112
SWIDTH 540 0
DWIDTH 15 0
BBX 12 21 2 -6
BITMAP
CF80
DFC0
F1E0
E070
C070
C030
C030
C030
C030
C030
C070
E070
F0E0
FFE0
CF80
C000
C000
C000
C000
C000
C000
ENDCHAR
STARTCHAR 0071
ENCODING 113
SWIDTH 540 0
DWIDTH 15 0
BBX 13 21 1 -6
BITMAP
0FB8
3FF8
38F8
7038
6038
E038
E038
E038
E038
E038
6038
7038
7878
3FF8
1FB8
0038
0038
0038
0038
0038
0038
ENDCHAR
STARTCHAR 0072
ENCODING 114
SWIDTH 324 0
DWIDTH 9 0
BBX 7 15 2 0
BITMAP
CE
DE
FE
E0
C0
C0
C0
C0
C0
C0
C0
C0
C0
C0
C0
ENDCHAR
STARTCHAR 0073
ENCODING 115
SWIDTH 504 0
DWIDTH 14 0
BBX 12 15 1 0
BITMAP
0F80
3FC0
78E0
6070
6070
7000
3E00
1FC0
03E0
0070
E070
E070
7070
3FE0
1FC0
ENDCHAR
STARTCHAR 0074
ENCODING 116
SWIDTH 324 0
DWIDTH 9 0
BBX 8 18 0 0
BITMAP
18
18
18
FF
FF
18
18
18
18
18
18
18
18
18
18
1C
1F
0F
ENDCHAR
STARTCHAR 0075
ENCODING 117
SWIDTH 540 0
DWIDTH 15 0
BBX 11 15 2 0
BITMAP
C060
C060
C060
C060
C060
C060
C060
C060
C060
C060
C060
E060
E0E0
7FE0
3F60
ENDCHAR
STARTCHAR 0076
ENCODING 118
SWIDTH 468 0
DWIDTH 13 0
BBX 12 15 1 0
BITMAP
C070
C070
E060
60E0
60C0
70C0
31C0
3180
3980
1B80
1B00
1F00
0F00
0E00
0600
ENDCHAR
STARTCHAR 0077
ENCODING 119
SWIDTH 720 0
DWIDTH 20 0
BBX 19 15 1 0
BITMAP
C0C060
C0E0E0
E0E0E0
E1E0C0
61B0C0
61B1C0
73B180
331980
331980
331B80
1E1F00
1E0F00
1E0F00
1C0E00
0C0600
ENDCHAR
STARTCHAR 0078
ENCODING 120
SWIDTH 468 0
DWIDTH 13 0
BBX 12 15 1 0
BITMAP
E070
E0E0
70E0
39C0
3980
1F80
0F00
0E00
0F00
1F80
1B80
39C0
70E0
60E0
E070
ENDCHAR
STARTCHAR 0079
ENCODING 121
SWIDTH 468 0
DWIDTH 13 0
BBX 13 21 0 -6
BITMAP
E038
6030
7070
7070
3060
38E0
18E0
18C0
1CC0
0DC0
0D80
0F80
0780
0700
0700
0700
0600
0E00
1C00
7C00
7000
ENDCHAR
STARTCHAR 007A
ENCODING 122
SWIDTH 468 0
DWIDTH 13 0
BBX 12 15 1 0
BITMAP
FFE0
FFE0
00E0
01C0
01C0
0380
0700
0E00
0E00
1C00
3800
7000
7000
FFF0
FFF0
ENDCHAR
STARTCHAR 007B
ENCODING 123
SWIDTH 324 0
DWIDTH 9 0
BBX 8 27 1 -5
BITMAP
01
07
0E
1C
1C
18
18
18
18
18
18
38
70
E0
F0
38
18
18
18
18
18
18
18
1C
0E
07
03
ENDCHAR
STARTCHAR 007C
ENCODING 124
SWIDTH 216 0
DWIDTH 6 0
BBX 2 24 2 -4
BITMAP
C0
C0
C0
C0
C0
C0
C0
C0
C0
C0
C0
C0
C0
C0
C0
C0
C0
C0
C0
C0
C0
C0
C0
C0
ENDCHAR
STARTCHAR 007D
ENCODING 125
SWIDTH 324 0
DWIDTH 9 0
BBX 8 26 0 -4
BITMAP
E0
70
38
18
1C
1C
1C
1C
1C
1C
1C
0E
07
0F
0C
1C
1C
1C
1C
1C
1C
18
18
38
F0
40
ENDCHAR
STARTCHAR 007E
ENCODING 126
SWIDTH 648 0
DWIDTH 18 0
BBX 15 6 2 5
BITMAP
3C06
7F06
E78E
C3FC
C0F8
0020
ENDCHAR
ENDFONT
