STARTFONT 2.1
COMMENT
COMMENT Converted from OpenType font "regular.ttf" by "otf2bdf 3.0".
COMMENT
FONT -FreeType-Roboto-Medium-R-Normal--14-100-100-100-P-59-ISO10646-1
SIZE 10 100 100
FONTBOUNDINGBOX 12 14 0 -3
STARTPROPERTIES 19
FOUNDRY "FreeType"
FAMILY_NAME "Roboto"
WEIGHT_NAME "Medium"
SLANT "R"
SETWIDTH_NAME "Normal"
ADD_STYLE_NAME ""
PIXEL_SIZE 14
POINT_SIZE 100
RESOLUTION_X 100
RESOLUTION_Y 100
SPACING "P"
AVERAGE_WIDTH 59
CHARSET_REGISTRY "ISO10646"
CHARSET_ENCODING "1"
FONT_ASCENT 12
FONT_DESCENT 3
COPYRIGHT "Copyright 2011 Google Inc. All Rights Reserved."
_OTF_FONTFILE "regular.ttf"
_OTF_PSNAME "Roboto-Regular"
ENDPROPERTIES
CHARS 98
STARTCHAR 0000
ENCODING 0
SWIDTH 0 0
DWIDTH 0 0
BBX 0 0 0 0
BITMAP
ENDCHAR
STARTCHAR 0002
ENCODING 2
SWIDTH 0 0
DWIDTH 0 0
BBX 0 0 0 0
BITMAP
ENDCHAR
STARTCHAR 000D
ENCODING 13
SWIDTH 216 0
DWIDTH 3 0
BBX 0 0 0 0
BITMAP
ENDCHAR
STARTCHAR 0020
ENCODING 32
SWIDTH 216 0
DWIDTH 3 0
BBX 0 0 0 0
BITMAP
ENDCHAR
STARTCHAR 0021
ENCODING 33
SWIDTH 216 0
DWIDTH 3 0
BBX 2 10 1 0
BITMAP
80
80
80
80
80
80
80
00
00
C0
ENDCHAR
STARTCHAR 0022
ENCODING 34
SWIDTH 288 0
DWIDTH 4 0
BBX 3 3 1 7
BITMAP
A0
A0
A0
ENDCHAR
STARTCHAR 0023
ENCODING 35
SWIDTH 576 0
DWIDTH 8 0
BBX 7 10 1 0
BITMAP
10
14
24
FE
24
28
FE
48
48
48
ENDCHAR
STARTCHAR 0024
ENCODING 36
SWIDTH 504 0
DWIDTH 7 0
BBX 6 12 1 -1
BITMAP
10
78
CC
84
C0
60
18
0C
84
8C
78
20
ENDCHAR
STARTCHAR 0025
ENCODING 37
SWIDTH 720 0
DWIDTH 10 0
BBX 9 10 1 0
BITMAP
E000
9200
9400
B400
4800
1000
1700
2880
2880
0700
ENDCHAR
STARTCHAR 0026
ENCODING 38
SWIDTH 576 0
DWIDTH 8 0
BBX 7 10 1 0
BITMAP
78
48
C8
58
70
72
9A
8E
84
7A
ENDCHAR
STARTCHAR 0027
ENCODING 39
SWIDTH 144 0
DWIDTH 2 0
BBX 1 3 1 7
BITMAP
80
80
80
ENDCHAR
STARTCHAR 0028
ENCODING 40
SWIDTH 288 0
DWIDTH 4 0
BBX 3 14 1 -3
BITMAP
20
20
40
C0
80
80
80
80
80
80
C0
40
60
20
ENDCHAR
STARTCHAR 0029
ENCODING 41
SWIDTH 288 0
DWIDTH 4 0
BBX 4 14 0 -3
BITMAP
80
40
20
20
30
30
10
10
10
30
20
20
40
80
ENDCHAR
STARTCHAR 002A
ENCODING 42
SWIDTH 360 0
DWIDTH 5 0
BBX 6 6 0 4
BITMAP
30
20
FC
30
78
48
ENDCHAR
STARTCHAR 002B
ENCODING 43
SWIDTH 504 0
DWIDTH 7 0
BBX 6 7 1 1
BITMAP
30
30
30
FC
30
30
30
ENDCHAR
STARTCHAR 002C
ENCODING 44
SWIDTH 144 0
DWIDTH 2 0
BBX 2 3 0 -2
BITMAP
40
40
80
ENDCHAR
STARTCHAR 002D
ENCODING 45
SWIDTH 216 0
DWIDTH 3 0
BBX 4 1 0 4
BITMAP
F0
ENDCHAR
STARTCHAR 002E
ENCODING 46
SWIDTH 216 0
DWIDTH 3 0
BBX 2 1 1 0
BITMAP
C0
ENDCHAR
STARTCHAR 002F
ENCODING 47
SWIDTH 360 0
DWIDTH 5 0
BBX 5 11 0 -1
BITMAP
08
08
10
10
10
20
20
40
40
40
80
ENDCHAR
STARTCHAR 0030
ENCODING 48
SWIDTH 504 0
DWIDTH 7 0
BBX 6 10 1 0
BITMAP
78
CC
84
84
84
84
84
84
CC
78
ENDCHAR
STARTCHAR 0031
ENCODING 49
SWIDTH 504 0
DWIDTH 7 0
BBX 4 10 1 0
BITMAP
10
F0
10
10
10
10
10
10
10
10
ENDCHAR
STARTCHAR 0032
ENCODING 50
SWIDTH 504 0
DWIDTH 7 0
BBX 6 10 1 0
BITMAP
78
8C
84
0C
08
18
30
60
C0
FC
ENDCHAR
STARTCHAR 0033
ENCODING 51
SWIDTH 504 0
DWIDTH 7 0
BBX 6 10 1 0
BITMAP
78
8C
8C
0C
38
18
04
84
8C
78
ENDCHAR
STARTCHAR 0034
ENCODING 52
SWIDTH 504 0
DWIDTH 7 0
BBX 7 10 0 0
BITMAP
04
0C
14
14
24
64
44
FE
04
04
ENDCHAR
STARTCHAR 0035
ENCODING 53
SWIDTH 504 0
DWIDTH 7 0
BBX 6 10 1 0
BITMAP
7C
40
40
40
FC
04
04
84
C4
78
ENDCHAR
STARTCHAR 0036
ENCODING 54
SWIDTH 504 0
DWIDTH 7 0
BBX 6 10 1 0
BITMAP
18
60
C0
80
F8
84
84
84
CC
78
ENDCHAR
STARTCHAR 0037
ENCODING 55
SWIDTH 504 0
DWIDTH 7 0
BBX 6 10 1 0
BITMAP
FC
04
08
08
18
10
30
20
60
40
ENDCHAR
STARTCHAR 0038
ENCODING 56
SWIDTH 504 0
DWIDTH 7 0
BBX 6 10 1 0
BITMAP
78
CC
84
8C
78
58
84
84
8C
78
ENDCHAR
STARTCHAR 0039
ENCODING 57
SWIDTH 504 0
DWIDTH 7 0
BBX 6 10 1 0
BITMAP
70
C8
8C
84
84
DC
74
08
18
70
ENDCHAR
STARTCHAR 003A
ENCODING 58
SWIDTH 216 0
DWIDTH 3 0
BBX 1 7 1 0
BITMAP
80
00
00
00
00
00
80
ENDCHAR
STARTCHAR 003B
ENCODING 59
SWIDTH 144 0
DWIDTH 2 0
BBX 2 9 0 -2
BITMAP
40
00
00
00
00
00
40
40
80
ENDCHAR
STARTCHAR 003C
ENCODING 60
SWIDTH 504 0
DWIDTH 7 0
BBX 6 5 0 1
BITMAP
0C
38
C0
70
1C
ENDCHAR
STARTCHAR 003D
ENCODING 61
SWIDTH 504 0
DWIDTH 7 0
BBX 6 4 1 3
BITMAP
FC
00
00
FC
ENDCHAR
STARTCHAR 003E
ENCODING 62
SWIDTH 504 0
DWIDTH 7 0
BBX 6 5 1 1
BITMAP
C0
30
0C
38
E0
ENDCHAR
STARTCHAR 003F
ENCODING 63
SWIDTH 432 0
DWIDTH 6 0
BBX 5 10 1 0
BITMAP
F0
98
08
08
10
20
60
00
00
60
ENDCHAR
STARTCHAR 0040
ENCODING 64
SWIDTH 864 0
DWIDTH 12 0
BBX 11 13 1 -3
BITMAP
0E00
3180
4040
4640
8920
9220
9220
9220
9240
9DC0
4000
6000
3F00
ENDCHAR
STARTCHAR 0041
ENCODING 65
SWIDTH 648 0
DWIDTH 9 0
BBX 9 10 0 0
BITMAP
0800
1C00
1400
1400
3200
2200
3F00
4100
4100
C180
ENDCHAR
STARTCHAR 0042
ENCODING 66
SWIDTH 576 0
DWIDTH 8 0
BBX 7 10 1 0
BITMAP
F8
84
86
84
FC
84
86
82
86
FC
ENDCHAR
STARTCHAR 0043
ENCODING 67
SWIDTH 648 0
DWIDTH 9 0
BBX 7 10 1 0
BITMAP
3C
46
C2
80
80
80
80
82
46
3C
ENDCHAR
STARTCHAR 0044
ENCODING 68
SWIDTH 648 0
DWIDTH 9 0
BBX 7 10 1 0
BITMAP
F8
8C
86
82
82
82
82
82
84
F8
ENDCHAR
STARTCHAR 0045
ENCODING 69
SWIDTH 504 0
DWIDTH 7 0
BBX 6 10 1 0
BITMAP
FC
80
80
80
FC
80
80
80
80
FC
ENDCHAR
STARTCHAR 0046
ENCODING 70
SWIDTH 504 0
DWIDTH 7 0
BBX 6 10 1 0
BITMAP
FC
80
80
80
80
FC
80
80
80
80
ENDCHAR
STARTCHAR 0047
ENCODING 71
SWIDTH 648 0
DWIDTH 9 0
BBX 7 10 1 0
BITMAP
3C
46
C2
80
80
8E
82
C2
42
3E
ENDCHAR
STARTCHAR 0048
ENCODING 72
SWIDTH 648 0
DWIDTH 9 0
BBX 8 10 1 0
BITMAP
83
83
83
83
FF
83
83
83
83
83
ENDCHAR
STARTCHAR 0049
ENCODING 73
SWIDTH 216 0
DWIDTH 3 0
BBX 2 10 1 0
BITMAP
C0
C0
C0
C0
C0
C0
C0
C0
C0
C0
ENDCHAR
STARTCHAR 004A
ENCODING 74
SWIDTH 504 0
DWIDTH 7 0
BBX 7 10 0 0
BITMAP
06
06
06
06
06
06
06
C6
44
7C
ENDCHAR
STARTCHAR 004B
ENCODING 75
SWIDTH 576 0
DWIDTH 8 0
BBX 7 10 1 0
BITMAP
82
84
88
90
B0
F0
D8
8C
86
82
ENDCHAR
STARTCHAR 004C
ENCODING 76
SWIDTH 504 0
DWIDTH 7 0
BBX 6 10 1 0
BITMAP
80
80
80
80
80
80
80
80
80
FC
ENDCHAR
STARTCHAR 004D
ENCODING 77
SWIDTH 864 0
DWIDTH 12 0
BBX 10 10 1 0
BITMAP
C0C0
C0C0
A1C0
A140
B140
9240
9240
8E40
8C40
8C40
ENDCHAR
STARTCHAR 004E
ENCODING 78
SWIDTH 648 0
DWIDTH 9 0
BBX 8 10 1 0
BITMAP
C3
C3
A3
B3
93
9B
8F
87
87
83
ENDCHAR
STARTCHAR 004F
ENCODING 79
SWIDTH 648 0
DWIDTH 9 0
BBX 8 10 1 0
BITMAP
3C
46
C2
83
83
83
83
82
46
3C
ENDCHAR
STARTCHAR 0050
ENCODING 80
SWIDTH 576 0
DWIDTH 8 0
BBX 7 10 1 0
BITMAP
FC
86
82
82
86
FC
80
80
80
80
ENDCHAR
STARTCHAR 0051
ENCODING 81
SWIDTH 648 0
DWIDTH 9 0
BBX 8 11 1 -2
BITMAP
3C
46
82
83
83
83
83
82
46
3C
06
ENDCHAR
STARTCHAR 0052
ENCODING 82
SWIDTH 576 0
DWIDTH 8 0
BBX 7 10 1 0
BITMAP
F8
84
86
82
86
F8
88
84
86
82
ENDCHAR
STARTCHAR 0053
ENCODING 83
SWIDTH 576 0
DWIDTH 8 0
BBX 7 10 1 0
BITMAP
78
C4
86
80
70
1C
06
86
86
7C
ENDCHAR
STARTCHAR 0054
ENCODING 84
SWIDTH 576 0
DWIDTH 8 0
BBX 8 10 0 0
BITMAP
FF
18
18
18
18
18
18
18
18
18
ENDCHAR
STARTCHAR 0055
ENCODING 85
SWIDTH 648 0
DWIDTH 9 0
BBX 7 10 1 0
BITMAP
82
82
82
82
82
82
82
82
C6
7C
ENDCHAR
STARTCHAR 0056
ENCODING 86
SWIDTH 576 0
DWIDTH 8 0
BBX 9 10 0 0
BITMAP
C180
4100
4300
6200
2200
2600
1400
1400
1C00
0800
ENDCHAR
STARTCHAR 0057
ENCODING 87
SWIDTH 864 0
DWIDTH 12 0
BBX 12 10 0 0
BITMAP
C210
4630
4620
4520
6D20
2960
29C0
28C0
30C0
10C0
ENDCHAR
STARTCHAR 0058
ENCODING 88
SWIDTH 576 0
DWIDTH 8 0
BBX 7 10 1 0
BITMAP
82
C4
4C
28
30
30
28
6C
C4
86
ENDCHAR
STARTCHAR 0059
ENCODING 89
SWIDTH 576 0
DWIDTH 8 0
BBX 8 10 0 0
BITMAP
C1
42
66
24
1C
18
18
18
18
18
ENDCHAR
STARTCHAR 005A
ENCODING 90
SWIDTH 576 0
DWIDTH 8 0
BBX 7 10 1 0
BITMAP
FE
04
0C
18
10
30
60
40
80
FE
ENDCHAR
STARTCHAR 005B
ENCODING 91
SWIDTH 216 0
DWIDTH 3 0
BBX 3 13 1 -2
BITMAP
E0
80
80
80
80
80
80
80
80
80
80
80
E0
ENDCHAR
STARTCHAR 005C
ENCODING 92
SWIDTH 360 0
DWIDTH 5 0
BBX 5 11 0 -1
BITMAP
C0
40
40
20
20
30
10
10
18
08
08
ENDCHAR
STARTCHAR 005D
ENCODING 93
SWIDTH 216 0
DWIDTH 3 0
BBX 3 13 0 -2
BITMAP
E0
60
60
60
60
60
60
60
60
60
60
60
E0
ENDCHAR
STARTCHAR 005E
ENCODING 94
SWIDTH 360 0
DWIDTH 5 0
BBX 4 5 1 5
BITMAP
40
60
E0
90
90
ENDCHAR
STARTCHAR 005F
ENCODING 95
SWIDTH 432 0
DWIDTH 6 0
BBX 6 1 0 -1
BITMAP
FC
ENDCHAR
STARTCHAR 0060
ENCODING 96
SWIDTH 288 0
DWIDTH 4 0
BBX 2 2 1 8
BITMAP
C0
40
ENDCHAR
STARTCHAR 0061
ENCODING 97
SWIDTH 504 0
DWIDTH 7 0
BBX 6 7 1 0
BITMAP
F8
88
0C
FC
8C
8C
FC
ENDCHAR
STARTCHAR 0062
ENCODING 98
SWIDTH 504 0
DWIDTH 7 0
BBX 6 10 1 0
BITMAP
80
80
80
F8
84
84
84
84
CC
F8
ENDCHAR
STARTCHAR 0063
ENCODING 99
SWIDTH 504 0
DWIDTH 7 0
BBX 6 7 1 0
BITMAP
78
8C
80
80
80
8C
78
ENDCHAR
STARTCHAR 0064
ENCODING 100
SWIDTH 504 0
DWIDTH 7 0
BBX 6 10 1 0
BITMAP
04
04
04
FC
84
84
84
84
CC
74
ENDCHAR
STARTCHAR 0065
ENCODING 101
SWIDTH 504 0
DWIDTH 7 0
BBX 6 7 1 0
BITMAP
78
8C
84
FC
80
C0
78
ENDCHAR
STARTCHAR 0066
ENCODING 102
SWIDTH 288 0
DWIDTH 4 0
BBX 5 11 0 0
BITMAP
18
38
20
20
F0
20
20
20
20
20
20
ENDCHAR
STARTCHAR 0067
ENCODING 103
SWIDTH 504 0
DWIDTH 7 0
BBX 6 10 1 -3
BITMAP
FC
84
84
84
84
CC
74
04
88
70
ENDCHAR
STARTCHAR 0068
ENCODING 104
SWIDTH 504 0
DWIDTH 7 0
BBX 6 10 1 0
BITMAP
80
80
80
F8
8C
8C
8C
8C
8C
8C
ENDCHAR
STARTCHAR 0069
ENCODING 105
SWIDTH 216 0
DWIDTH 3 0
BBX 1 10 1 0
BITMAP
80
00
00
80
80
80
80
80
80
80
ENDCHAR
STARTCHAR 006A
ENCODING 106
SWIDTH 216 0
DWIDTH 3 0
BBX 2 13 0 -3
BITMAP
40
00
00
40
40
40
40
40
40
40
40
40
C0
ENDCHAR
STARTCHAR 006B
ENCODING 107
SWIDTH 504 0
DWIDTH 7 0
BBX 6 10 1 0
BITMAP
80
80
80
98
B0
A0
E0
90
98
8C
ENDCHAR
STARTCHAR 006C
ENCODING 108
SWIDTH 216 0
DWIDTH 3 0
BBX 1 10 1 0
BITMAP
80
80
80
80
80
80
80
80
80
80
ENDCHAR
STARTCHAR 006D
ENCODING 109
SWIDTH 864 0
DWIDTH 12 0
BBX 10 7 1 0
BITMAP
FBC0
8C40
8C40
8C40
8C40
8C40
8C40
ENDCHAR
STARTCHAR 006E
ENCODING 110
SWIDTH 504 0
DWIDTH 7 0
BBX 6 7 1 0
BITMAP
F8
8C
8C
8C
8C
8C
8C
ENDCHAR
STARTCHAR 006F
ENCODING 111
SWIDTH 504 0
DWIDTH 7 0
BBX 6 7 1 0
BITMAP
78
84
84
84
84
CC
78
ENDCHAR
STARTCHAR 0070
ENCODING 112
SWIDTH 504 0
DWIDTH 7 0
BBX 6 10 1 -3
BITMAP
F8
8C
84
84
84
8C
F8
80
80
80
ENDCHAR
STARTCHAR 0071
ENCODING 113
SWIDTH 504 0
DWIDTH 7 0
BBX 6 10 1 -3
BITMAP
FC
84
84
84
84
CC
74
04
04
04
ENDCHAR
STARTCHAR 0072
ENCODING 114
SWIDTH 288 0
DWIDTH 4 0
BBX 4 7 1 0
BITMAP
F0
80
80
80
80
80
80
ENDCHAR
STARTCHAR 0073
ENCODING 115
SWIDTH 504 0
DWIDTH 7 0
BBX 5 7 1 0
BITMAP
F8
88
C0
78
08
88
78
ENDCHAR
STARTCHAR 0074
ENCODING 116
SWIDTH 288 0
DWIDTH 4 0
BBX 4 9 0 0
BITMAP
60
60
F0
60
60
60
60
60
30
ENDCHAR
STARTCHAR 0075
ENCODING 117
SWIDTH 504 0
DWIDTH 7 0
BBX 6 7 1 0
BITMAP
8C
8C
8C
8C
8C
8C
7C
ENDCHAR
STARTCHAR 0076
ENCODING 118
SWIDTH 432 0
DWIDTH 6 0
BBX 5 7 1 0
BITMAP
88
88
90
50
50
60
20
ENDCHAR
STARTCHAR 0077
ENCODING 119
SWIDTH 720 0
DWIDTH 10 0
BBX 9 7 1 0
BITMAP
9880
9980
9500
F500
6500
6600
6200
ENDCHAR
STARTCHAR 0078
ENCODING 120
SWIDTH 432 0
DWIDTH 6 0
BBX 5 7 1 0
BITMAP
88
50
70
20
50
D8
88
ENDCHAR
STARTCHAR 0079
ENCODING 121
SWIDTH 432 0
DWIDTH 6 0
BBX 6 10 0 -3
BITMAP
C4
4C
48
28
28
30
10
10
20
60
ENDCHAR
STARTCHAR 007A
ENCODING 122
SWIDTH 432 0
DWIDTH 6 0
BBX 5 7 1 0
BITMAP
F8
10
30
20
40
80
F8
ENDCHAR
STARTCHAR 007B
ENCODING 123
SWIDTH 288 0
DWIDTH 4 0
BBX 4 13 0 -2
BITMAP
10
30
20
20
20
20
C0
60
20
20
20
20
10
ENDCHAR
STARTCHAR 007C
ENCODING 124
SWIDTH 216 0
DWIDTH 3 0
BBX 1 12 1 -2
BITMAP
80
80
80
80
80
80
80
80
80
80
80
80
ENDCHAR
STARTCHAR 007D
ENCODING 125
SWIDTH 288 0
DWIDTH 4 0
BBX 4 13 0 -2
BITMAP
80
40
60
20
20
20
30
20
20
20
20
60
40
ENDCHAR
STARTCHAR 007E
ENCODING 126
SWIDTH 648 0
DWIDTH 9 0
BBX 7 2 1 3
BITMAP
F2
8E
ENDCHAR
ENDFONT
